<svg id="visual" viewBox="0 0 960 540" width="960" height="540" xmlns="http://www.w3.org/2000/svg" xmlns:xlink="http://www.w3.org/1999/xlink" version="1.1"><rect x="0" y="0" width="960" height="540" fill="#faeacd"></rect><path d="M0 342L22.8 352C45.7 362 91.3 382 137 389.3C182.7 396.7 228.3 391.3 274 377.7C319.7 364 365.3 342 411.2 336C457 330 503 340 548.8 339.5C594.7 339 640.3 328 686 323.3C731.7 318.7 777.3 320.3 823 334C868.7 347.7 914.3 373.3 937.2 386.2L960 399L960 541L937.2 541C914.3 541 868.7 541 823 541C777.3 541 731.7 541 686 541C640.3 541 594.7 541 548.8 541C503 541 457 541 411.2 541C365.3 541 319.7 541 274 541C228.3 541 182.7 541 137 541C91.3 541 45.7 541 22.8 541L0 541Z" fill="#c62368"></path><path d="M0 427L22.8 415.3C45.7 403.7 91.3 380.3 137 378.8C182.7 377.3 228.3 397.7 274 399.8C319.7 402 365.3 386 411.2 387.2C457 388.3 503 406.7 548.8 405.7C594.7 404.7 640.3 384.3 686 376.8C731.7 369.3 777.3 374.7 823 373.8C868.7 373 914.3 366 937.2 362.5L960 359L960 541L937.2 541C914.3 541 868.7 541 823 541C777.3 541 731.7 541 686 541C640.3 541 594.7 541 548.8 541C503 541 457 541 411.2 541C365.3 541 319.7 541 274 541C228.3 541 182.7 541 137 541C91.3 541 45.7 541 22.8 541L0 541Z" fill="#e1435a"></path><path d="M0 419L22.8 425.5C45.7 432 91.3 445 137 444C182.7 443 228.3 428 274 417.2C319.7 406.3 365.3 399.7 411.2 398.8C457 398 503 403 548.8 405.2C594.7 407.3 640.3 406.7 686 404.5C731.7 402.3 777.3 398.7 823 405.7C868.7 412.7 914.3 430.3 937.2 439.2L960 448L960 541L937.2 541C914.3 541 868.7 541 823 541C777.3 541 731.7 541 686 541C640.3 541 594.7 541 548.8 541C503 541 457 541 411.2 541C365.3 541 319.7 541 274 541C228.3 541 182.7 541 137 541C91.3 541 45.7 541 22.8 541L0 541Z" fill="#f3664c"></path><path d="M0 480L22.8 480.7C45.7 481.3 91.3 482.7 137 474.7C182.7 466.7 228.3 449.3 274 444.7C319.7 440 365.3 448 411.2 455C457 462 503 468 548.8 471.8C594.7 475.7 640.3 477.3 686 473.2C731.7 469 777.3 459 823 458.8C868.7 458.7 914.3 468.3 937.2 473.2L960 478L960 541L937.2 541C914.3 541 868.7 541 823 541C777.3 541 731.7 541 686 541C640.3 541 594.7 541 548.8 541C503 541 457 541 411.2 541C365.3 541 319.7 541 274 541C228.3 541 182.7 541 137 541C91.3 541 45.7 541 22.8 541L0 541Z" fill="#fc8a40"></path><path d="M0 514L22.8 510C45.7 506 91.3 498 137 494.8C182.7 491.7 228.3 493.3 274 495C319.7 496.7 365.3 498.3 411.2 495.5C457 492.7 503 485.3 548.8 486.8C594.7 488.3 640.3 498.7 686 499.2C731.7 499.7 777.3 490.3 823 484.8C868.7 479.3 914.3 477.7 937.2 476.8L960 476L960 541L937.2 541C914.3 541 868.7 541 823 541C777.3 541 731.7 541 686 541C640.3 541 594.7 541 548.8 541C503 541 457 541 411.2 541C365.3 541 319.7 541 274 541C228.3 541 182.7 541 137 541C91.3 541 45.7 541 22.8 541L0 541Z" fill="#fcaf3c"></path></svg>