<svg id="visual" viewBox="0 0 960 540" width="960" height="540" xmlns="http://www.w3.org/2000/svg" xmlns:xlink="http://www.w3.org/1999/xlink" version="1.1"><rect x="0" y="0" width="960" height="540" fill="#FFFFFF"></rect><path d="M0 247L22.8 248C45.7 249 91.3 251 137 260.7C182.7 270.3 228.3 287.7 274 300.3C319.7 313 365.3 321 411.2 323.3C457 325.7 503 322.3 548.8 313.7C594.7 305 640.3 291 686 295.3C731.7 299.7 777.3 322.3 823 333.5C868.7 344.7 914.3 344.3 937.2 344.2L960 344L960 541L937.2 541C914.3 541 868.7 541 823 541C777.3 541 731.7 541 686 541C640.3 541 594.7 541 548.8 541C503 541 457 541 411.2 541C365.3 541 319.7 541 274 541C228.3 541 182.7 541 137 541C91.3 541 45.7 541 22.8 541L0 541Z" fill="#0066ff"></path><path d="M0 361L22.8 356.5C45.7 352 91.3 343 137 341.7C182.7 340.3 228.3 346.7 274 348.8C319.7 351 365.3 349 411.2 349.5C457 350 503 353 548.8 353.8C594.7 354.7 640.3 353.3 686 350.3C731.7 347.3 777.3 342.7 823 336.8C868.7 331 914.3 324 937.2 320.5L960 317L960 541L937.2 541C914.3 541 868.7 541 823 541C777.3 541 731.7 541 686 541C640.3 541 594.7 541 548.8 541C503 541 457 541 411.2 541C365.3 541 319.7 541 274 541C228.3 541 182.7 541 137 541C91.3 541 45.7 541 22.8 541L0 541Z" fill="#007aff"></path><path d="M0 351L22.8 357.8C45.7 364.7 91.3 378.3 137 389.3C182.7 400.3 228.3 408.7 274 407.3C319.7 406 365.3 395 411.2 383.7C457 372.3 503 360.7 548.8 365.2C594.7 369.7 640.3 390.3 686 391.7C731.7 393 777.3 375 823 377.5C868.7 380 914.3 403 937.2 414.5L960 426L960 541L937.2 541C914.3 541 868.7 541 823 541C777.3 541 731.7 541 686 541C640.3 541 594.7 541 548.8 541C503 541 457 541 411.2 541C365.3 541 319.7 541 274 541C228.3 541 182.7 541 137 541C91.3 541 45.7 541 22.8 541L0 541Z" fill="#008cff"></path><path d="M0 448L22.8 447.2C45.7 446.3 91.3 444.7 137 446.2C182.7 447.7 228.3 452.3 274 450.5C319.7 448.7 365.3 440.3 411.2 439.7C457 439 503 446 548.8 447.7C594.7 449.3 640.3 445.7 686 442.7C731.7 439.7 777.3 437.3 823 432C868.7 426.7 914.3 418.3 937.2 414.2L960 410L960 541L937.2 541C914.3 541 868.7 541 823 541C777.3 541 731.7 541 686 541C640.3 541 594.7 541 548.8 541C503 541 457 541 411.2 541C365.3 541 319.7 541 274 541C228.3 541 182.7 541 137 541C91.3 541 45.7 541 22.8 541L0 541Z" fill="#2b9dfc"></path><path d="M0 480L22.8 479.3C45.7 478.7 91.3 477.3 137 471.8C182.7 466.3 228.3 456.7 274 461C319.7 465.3 365.3 483.7 411.2 489.8C457 496 503 490 548.8 481.3C594.7 472.7 640.3 461.3 686 462.8C731.7 464.3 777.3 478.7 823 480.8C868.7 483 914.3 473 937.2 468L960 463L960 541L937.2 541C914.3 541 868.7 541 823 541C777.3 541 731.7 541 686 541C640.3 541 594.7 541 548.8 541C503 541 457 541 411.2 541C365.3 541 319.7 541 274 541C228.3 541 182.7 541 137 541C91.3 541 45.7 541 22.8 541L0 541Z" fill="#4facf7"></path></svg>