<svg id="visual" viewBox="0 0 960 540" width="960" height="540" xmlns="http://www.w3.org/2000/svg" xmlns:xlink="http://www.w3.org/1999/xlink" version="1.1"><rect x="0" y="0" width="960" height="540" fill="#f7cba7"></rect><defs><linearGradient id="grad1_0" x1="43.8%" y1="100%" x2="100%" y2="0%"><stop offset="14.444444444444446%" stop-color="#c62368" stop-opacity="1"></stop><stop offset="85.55555555555554%" stop-color="#c62368" stop-opacity="1"></stop></linearGradient></defs><defs><linearGradient id="grad1_1" x1="43.8%" y1="100%" x2="100%" y2="0%"><stop offset="14.444444444444446%" stop-color="#c62368" stop-opacity="1"></stop><stop offset="85.55555555555554%" stop-color="#e68071" stop-opacity="1"></stop></linearGradient></defs><defs><linearGradient id="grad1_2" x1="43.8%" y1="100%" x2="100%" y2="0%"><stop offset="14.444444444444446%" stop-color="#f7cba7" stop-opacity="1"></stop><stop offset="85.55555555555554%" stop-color="#e68071" stop-opacity="1"></stop></linearGradient></defs><defs><linearGradient id="grad2_0" x1="0%" y1="100%" x2="56.3%" y2="0%"><stop offset="14.444444444444446%" stop-color="#c62368" stop-opacity="1"></stop><stop offset="85.55555555555554%" stop-color="#c62368" stop-opacity="1"></stop></linearGradient></defs><defs><linearGradient id="grad2_1" x1="0%" y1="100%" x2="56.3%" y2="0%"><stop offset="14.444444444444446%" stop-color="#e68071" stop-opacity="1"></stop><stop offset="85.55555555555554%" stop-color="#c62368" stop-opacity="1"></stop></linearGradient></defs><defs><linearGradient id="grad2_2" x1="0%" y1="100%" x2="56.3%" y2="0%"><stop offset="14.444444444444446%" stop-color="#e68071" stop-opacity="1"></stop><stop offset="85.55555555555554%" stop-color="#f7cba7" stop-opacity="1"></stop></linearGradient></defs><g transform="translate(960, 540)"><path d="M-486 0C-435.9 -62.9 -385.8 -125.9 -351.6 -203C-317.4 -280.1 -299 -371.4 -243 -420.9C-187 -470.4 -93.5 -478.2 0 -486L0 0Z" fill="#efa786"></path><path d="M-324 0C-290.6 -42 -257.2 -83.9 -234.4 -135.3C-211.6 -186.7 -199.3 -247.6 -162 -280.6C-124.7 -313.6 -62.3 -318.8 0 -324L0 0Z" fill="#d95668"></path><path d="M-162 0C-145.3 -21 -128.6 -42 -117.2 -67.7C-105.8 -93.4 -99.7 -123.8 -81 -140.3C-62.3 -156.8 -31.2 -159.4 0 -162L0 0Z" fill="#c62368"></path></g><g transform="translate(0, 0)"><path d="M486 0C469.2 82.1 452.4 164.3 414 239C375.6 313.7 315.6 381 243 420.9C170.4 460.8 85.2 473.4 0 486L0 0Z" fill="#efa786"></path><path d="M324 0C312.8 54.8 301.6 109.5 276 159.3C250.4 209.1 210.4 254 162 280.6C113.6 307.2 56.8 315.6 0 324L0 0Z" fill="#d95668"></path><path d="M162 0C156.4 27.4 150.8 54.8 138 79.7C125.2 104.6 105.2 127 81 140.3C56.8 153.6 28.4 157.8 0 162L0 0Z" fill="#c62368"></path></g></svg>